<?xml version="1.0" encoding="UTF-8"?>
<!DOCTYPE svg PUBLIC "-//W3C//DTD SVG 1.1//EN" "http://www.w3.org/Graphics/SVG/1.1/DTD/svg11.dtd">
<!-- Creator: CorelDRAW 2019 (64-Bit) -->
<svg xmlns="http://www.w3.org/2000/svg" xml:space="preserve" width="91.0351mm" height="94.8165mm" version="1.1" style="shape-rendering:geometricPrecision; text-rendering:geometricPrecision; image-rendering:optimizeQuality; fill-rule:evenodd; clip-rule:evenodd"
viewBox="0 0 8179.34 8519.09"
 xmlns:xlink="http://www.w3.org/1999/xlink">
 <defs>
  <style type="text/css">
   <![CDATA[
    .fil0 {fill:none}
   ]]>
  </style>
   <clipPath id="id0">
    <path d="M300.37 2928.96c108.24,-366.99 242.42,-691.65 402.56,-973.95 300.57,-528.89 746.96,-935.66 1339.18,-1220.33 492.86,-258.36 965.67,-437.96 1418.42,-538.81 256.4,-15.99 550.91,-71.47 883.54,-166.41 399.85,-79.22 772.3,1.35 1117.33,241.68 362.85,311.19 739.25,521.17 1129.19,629.97 480.77,217.54 832.06,514.7 1053.87,891.48 319.09,344.97 474.93,722.69 467.53,1133.16 73.71,715.78 86.92,1228.21 39.61,1537.29 -5.07,611.9 -129.21,1158.66 -372.43,1640.3 -178.82,285.5 -292.41,557.57 -340.75,816.21 -200.33,335.05 -406.35,588.62 -618.08,760.72 -266.95,221.8 -581.27,414.61 -942.97,578.46 -402.16,189.95 -774.59,274.48 -1117.31,253.58 -212.31,-44.78 -475.3,-43.75 -788.97,3.11 -465.91,26.06 -947.94,-86.89 -1446.12,-338.84 -400.46,-196.5 -640.82,-336.47 -721.06,-419.93 -276.79,-149.82 -488.1,-238.31 -633.93,-265.46 -254.67,-149.33 -460.7,-377.8 -618.08,-685.43 -148.97,-289.29 -277.06,-511.16 -384.31,-665.6 -100.1,-248.59 -137.07,-591.97 -110.94,-1030.14 6.38,-247.96 -6.81,-441.43 -39.57,-580.41 -41.57,-343.12 -7.23,-621.12 103.01,-834 92.27,-171.67 152.36,-427.22 180.28,-766.65z"/>
   </clipPath>
    <clipPath id="id1">
     <path d="M300.37 2928.96c108.24,-366.99 242.42,-691.65 402.56,-973.95 300.57,-528.89 746.96,-935.66 1339.18,-1220.33 492.86,-258.36 965.67,-437.96 1418.42,-538.81 256.4,-15.99 550.91,-71.47 883.54,-166.41 399.85,-79.22 772.3,1.35 1117.33,241.68 362.85,311.19 739.25,521.17 1129.19,629.97 480.77,217.54 832.06,514.7 1053.87,891.48 319.09,344.97 474.93,722.69 467.53,1133.16 73.71,715.78 86.92,1228.21 39.61,1537.29 -5.07,611.9 -129.21,1158.66 -372.43,1640.3 -178.82,285.5 -292.41,557.57 -340.75,816.21 -200.33,335.05 -406.35,588.62 -618.08,760.72 -266.95,221.8 -581.27,414.61 -942.97,578.46 -402.16,189.95 -774.59,274.48 -1117.31,253.58 -212.31,-44.78 -475.3,-43.75 -788.97,3.11 -465.91,26.06 -947.94,-86.89 -1446.12,-338.84 -400.46,-196.5 -640.82,-336.47 -721.06,-419.93 -276.79,-149.82 -488.1,-238.31 -633.93,-265.46 -254.67,-149.33 -460.7,-377.8 -618.08,-685.43 -148.97,-289.29 -277.06,-511.16 -384.31,-665.6 -100.1,-248.59 -137.07,-591.97 -110.94,-1030.14 6.38,-247.96 -6.81,-441.43 -39.57,-580.41 -41.57,-343.12 -7.23,-621.12 103.01,-834 92.27,-171.67 152.36,-427.22 180.28,-766.65z"/>
    </clipPath>
    <clipPath id="id2">
     <path d="M300.37 2928.96c108.24,-366.99 242.42,-691.65 402.56,-973.95 300.57,-528.89 746.96,-935.66 1339.18,-1220.33 492.86,-258.36 965.67,-437.96 1418.42,-538.81 256.4,-15.99 550.91,-71.47 883.54,-166.41 399.85,-79.22 772.3,1.35 1117.33,241.68 362.85,311.19 739.25,521.17 1129.19,629.97 480.77,217.54 832.06,514.7 1053.87,891.48 319.09,344.97 474.93,722.69 467.53,1133.16 73.71,715.78 86.92,1228.21 39.61,1537.29 -5.07,611.9 -129.21,1158.66 -372.43,1640.3 -178.82,285.5 -292.41,557.57 -340.75,816.21 -200.33,335.05 -406.35,588.62 -618.08,760.72 -266.95,221.8 -581.27,414.61 -942.97,578.46 -402.16,189.95 -774.59,274.48 -1117.31,253.58 -212.31,-44.78 -475.3,-43.75 -788.97,3.11 -465.91,26.06 -947.94,-86.89 -1446.12,-338.84 -400.46,-196.5 -640.82,-336.47 -721.06,-419.93 -276.79,-149.82 -488.1,-238.31 -633.93,-265.46 -254.67,-149.33 -460.7,-377.8 -618.08,-685.43 -148.97,-289.29 -277.06,-511.16 -384.31,-665.6 -100.1,-248.59 -137.07,-591.97 -110.94,-1030.14 6.38,-247.96 -6.81,-441.43 -39.57,-580.41 -41.57,-343.12 -7.23,-621.12 103.01,-834 92.27,-171.67 152.36,-427.22 180.28,-766.65z"/>
    </clipPath>
 </defs>
 <g id="Capa_x0020_1">
  <metadata id="CorelCorpID_0Corel-Layer"/>
  <g>
  </g>
  <g style="clip-path:url(#id0)">
   <g>
   </g>
   <g style="clip-path:url(#id1)">
    <image id="_7efec23661e049e412f92d131ed1d7e2.png" x="-645.06" y="-511.59" width="9508.92" height="9508.92" xlink:href="portal_Images\portal_ImgID1.png"/>
   </g>
   <g style="clip-path:url(#id2)">
   </g>
  </g>
  <path class="fil0" d="M300.37 2928.96c108.24,-366.99 242.42,-691.65 402.56,-973.95 300.57,-528.89 746.96,-935.66 1339.18,-1220.33 492.86,-258.36 965.67,-437.96 1418.42,-538.81 256.4,-15.99 550.91,-71.47 883.54,-166.41 399.85,-79.22 772.3,1.35 1117.33,241.68 362.85,311.19 739.25,521.17 1129.19,629.97 480.77,217.54 832.06,514.7 1053.87,891.48 319.09,344.97 474.93,722.69 467.53,1133.16 73.71,715.78 86.92,1228.21 39.61,1537.29 -5.07,611.9 -129.21,1158.66 -372.43,1640.3 -178.82,285.5 -292.41,557.57 -340.75,816.21 -200.33,335.05 -406.35,588.62 -618.08,760.72 -266.95,221.8 -581.27,414.61 -942.97,578.46 -402.16,189.95 -774.59,274.48 -1117.31,253.58 -212.31,-44.78 -475.3,-43.75 -788.97,3.11 -465.91,26.06 -947.94,-86.89 -1446.12,-338.84 -400.46,-196.5 -640.82,-336.47 -721.06,-419.93 -276.79,-149.82 -488.1,-238.31 -633.93,-265.46 -254.67,-149.33 -460.7,-377.8 -618.08,-685.43 -148.97,-289.29 -277.06,-511.16 -384.31,-665.6 -100.1,-248.59 -137.07,-591.97 -110.94,-1030.14 6.38,-247.96 -6.81,-441.43 -39.57,-580.41 -41.57,-343.12 -7.23,-621.12 103.01,-834 92.27,-171.67 152.36,-427.22 180.28,-766.65z"/>
 </g>
</svg>
